<svg width="166" height="22" viewBox="0 0 166 22" fill="none" xmlns="http://www.w3.org/2000/svg">
<path d="M0.457659 0.903758H3.4039L10.6005 10.7809C10.7937 11.0707 10.9627 11.3444 11.1076 11.602C11.2525 11.8435 11.3571 12.0125 11.4215 12.1091L11.5423 12.0608L11.494 10.7568V0.903758H14.4644V17.4703H11.5664L4.32158 7.49658C4.14449 7.25508 3.97544 6.98944 3.81444 6.69965C3.65345 6.39375 3.5488 6.20861 3.5005 6.14421L3.37975 6.21666C3.37975 6.29715 3.3878 6.45815 3.4039 6.69965C3.42 6.94114 3.42805 7.22289 3.42805 7.54488V17.4703H0.457659V0.903758ZM25.3239 17.7601C22.6997 17.7601 20.6953 17.0598 19.3107 15.6591C17.9261 14.2423 17.2338 12.085 17.2338 9.18705C17.2338 6.3213 17.9583 4.18004 19.4073 2.76327C20.8724 1.3304 22.9653 0.613964 25.6862 0.613964C27.1352 0.613964 28.4392 0.83936 29.5984 1.29015C30.7737 1.72484 31.6994 2.38493 32.3756 3.27041C33.0679 4.15589 33.414 5.25067 33.414 6.55475H30.2263C30.2263 5.50827 29.7997 4.69523 28.9464 4.11565C28.0931 3.51996 27.0305 3.22211 25.7586 3.22211C23.9555 3.22211 22.6111 3.69705 21.7257 4.64694C20.8402 5.59682 20.3974 7.02969 20.3974 8.94555V9.42854C20.4135 11.4088 20.8321 12.8578 21.6532 13.7755C22.4904 14.6931 23.7623 15.152 25.4688 15.152C26.9822 15.152 28.1655 14.8058 29.0188 14.1136C29.8882 13.4213 30.3229 12.4472 30.3229 11.1915V11.1673H25.01V8.60746H33.414V17.4703H31.2164L30.9508 15.635C30.2263 16.3595 29.4133 16.8988 28.5117 17.253C27.6101 17.5911 26.5475 17.7601 25.3239 17.7601ZM36.682 0.903758H39.6282L46.8248 10.7809C47.018 11.0707 47.187 11.3444 47.3319 11.602C47.4768 11.8435 47.5814 12.0125 47.6458 12.1091L47.7666 12.0608L47.7183 10.7568V0.903758H50.6887V17.4703H47.7907L40.5459 7.49658C40.3688 7.25508 40.1997 6.98944 40.0387 6.69965C39.8777 6.39375 39.7731 6.20861 39.7248 6.14421L39.604 6.21666C39.604 6.29715 39.6121 6.45815 39.6282 6.69965C39.6443 6.94114 39.6523 7.22289 39.6523 7.54488V17.4703H36.682V0.903758ZM66.9413 13.7513H59.6482V11.3605C61.6606 8.01177 63.1418 4.42959 64.0917 0.613964H67.1104C66.8045 1.93414 66.3376 3.33481 65.7097 4.81598C65.0818 6.29715 64.4378 7.63343 63.7777 8.8248C63.1337 10.0162 62.6186 10.8695 62.2322 11.3847H66.9413V7.11019C67.5209 5.93491 68.028 4.59059 68.4627 3.07722H69.8393V11.3847H71.9161V13.7513H69.8393V17.4703H66.9413V13.7513ZM74.6611 15.1037H78.694V4.57449H74.6369V2.78742C75.3775 2.70692 76.2791 2.48958 77.3417 2.13538C78.4203 1.78119 79.3702 1.37065 80.1913 0.903758H81.592V15.1037H85.2868V17.4703H74.6611V15.1037ZM88.9978 17.4703H87.8144V14.4033H90.809V17.2047L89.3842 21.0445H87.8144L88.9978 17.4703ZM93.6905 16.6493C93.6905 15.7477 93.8998 14.9346 94.3184 14.2102C94.737 13.4696 95.2441 12.8256 95.8398 12.2782C96.4516 11.7308 97.2485 11.0949 98.2306 10.3704C99.0678 9.74249 99.7279 9.21925 100.211 8.80065C100.71 8.36596 101.129 7.90712 101.467 7.42413C101.917 6.78014 102.143 6.06371 102.143 5.27482C102.143 4.66304 101.934 4.1398 101.515 3.7051C101.112 3.25431 100.477 3.02892 99.6071 3.02892C98.6734 3.02892 97.973 3.25431 97.5061 3.7051C97.0553 4.1398 96.8299 4.77573 96.8299 5.61292V6.60305H93.9561C93.8918 6.32935 93.8596 6.00736 93.8596 5.63707C93.8596 3.9627 94.415 2.70692 95.5259 1.86974C96.6367 1.03256 98.0455 0.613964 99.752 0.613964C101.072 0.613964 102.127 0.863509 102.916 1.3626C103.721 1.86169 104.284 2.48153 104.606 3.22211C104.928 3.9466 105.089 4.69523 105.089 5.46802C105.089 6.4823 104.84 7.40803 104.34 8.24522C103.857 9.0663 103.278 9.76664 102.602 10.3462C101.925 10.9258 101.056 11.602 99.9935 12.3748C99.5749 12.6646 99.1644 12.9624 98.7619 13.2683C98.3594 13.5742 98.0374 13.8479 97.7959 14.0894C97.5222 14.3631 97.329 14.6126 97.2163 14.838H105.186V17.4703H93.6905V16.6493ZM112.857 17.7601C110.957 17.7601 109.492 17.3174 108.462 16.4319C107.432 15.5303 106.916 14.3148 106.916 12.7853V12.4231H109.863V12.8578C109.863 13.6789 110.112 14.3067 110.611 14.7414C111.11 15.1761 111.827 15.3935 112.761 15.3935C113.662 15.3935 114.37 15.1842 114.886 14.7656C115.401 14.3309 115.658 13.6789 115.658 12.8095C115.658 11.0868 114.628 10.2255 112.567 10.2255H111.167V7.85882H112.64C113.413 7.85882 114.048 7.64148 114.548 7.20679C115.047 6.77209 115.296 6.15226 115.296 5.34727C115.296 4.55839 115.071 3.97075 114.62 3.58436C114.169 3.18186 113.566 2.98062 112.809 2.98062C112.004 2.98062 111.368 3.18186 110.901 3.58436C110.434 3.98685 110.201 4.58254 110.201 5.37142V5.75781H107.279V5.15408C107.279 4.25249 107.512 3.46361 107.979 2.78742C108.446 2.09514 109.09 1.56385 109.911 1.19355C110.748 0.807161 111.698 0.613964 112.761 0.613964C114.435 0.613964 115.771 1.00841 116.769 1.79729C117.784 2.58618 118.291 3.7051 118.291 5.15408C118.291 6.07176 118.057 6.82844 117.59 7.42413C117.124 8.00372 116.472 8.48671 115.634 8.8731V8.9697C116.536 9.2434 117.26 9.72639 117.808 10.4187C118.355 11.111 118.629 11.9803 118.629 13.0268C118.629 13.9928 118.379 14.838 117.88 15.5625C117.397 16.2709 116.721 16.8183 115.852 17.2047C114.982 17.575 113.984 17.7601 112.857 17.7601ZM121.639 15.1037H125.672V4.57449H121.615V2.78742C122.356 2.70692 123.257 2.48958 124.32 2.13538C125.399 1.78119 126.349 1.37065 127.17 0.903758H128.57V15.1037H132.265V17.4703H121.639V15.1037ZM134.793 14.4033H137.812V17.4703H134.793V14.4033ZM146.368 17.7601C144.388 17.7601 142.915 17.3174 141.949 16.4319C140.983 15.5303 140.5 14.3631 140.5 12.9302C140.5 10.9983 141.385 9.67809 143.156 8.9697C142.416 8.58331 141.852 8.06812 141.466 7.42413C141.096 6.76404 140.91 6.03151 140.91 5.22652C140.91 4.35714 141.12 3.57631 141.538 2.88402C141.957 2.19173 142.569 1.64434 143.374 1.24185C144.195 0.82326 145.193 0.613964 146.368 0.613964C147.527 0.613964 148.517 0.82326 149.339 1.24185C150.16 1.64434 150.771 2.19173 151.174 2.88402C151.593 3.57631 151.802 4.35714 151.802 5.22652C151.802 6.03151 151.609 6.76404 151.222 7.42413C150.852 8.06812 150.297 8.58331 149.556 8.9697C151.343 9.67809 152.237 10.9983 152.237 12.9302C152.237 14.3631 151.745 15.5303 150.763 16.4319C149.797 17.3174 148.332 17.7601 146.368 17.7601ZM146.368 7.83467C147.157 7.83467 147.777 7.62538 148.228 7.20679C148.678 6.78819 148.904 6.19251 148.904 5.41972C148.904 4.64694 148.678 4.0432 148.228 3.60851C147.777 3.17381 147.157 2.95647 146.368 2.95647C145.563 2.95647 144.935 3.17381 144.485 3.60851C144.05 4.0271 143.832 4.63084 143.832 5.41972C143.832 6.19251 144.05 6.78819 144.485 7.20679C144.935 7.62538 145.563 7.83467 146.368 7.83467ZM146.368 15.4176C147.286 15.4176 147.994 15.1842 148.493 14.7173C148.992 14.2504 149.242 13.6064 149.242 12.7853C149.242 11.9642 148.992 11.3283 148.493 10.8775C147.994 10.4106 147.286 10.1772 146.368 10.1772C145.434 10.1772 144.718 10.4106 144.219 10.8775C143.72 11.3283 143.47 11.9642 143.47 12.7853C143.47 13.6225 143.72 14.2745 144.219 14.7414C144.718 15.1922 145.434 15.4176 146.368 15.4176ZM154.088 16.6493C154.088 15.7477 154.297 14.9346 154.716 14.2102C155.134 13.4696 155.642 12.8256 156.237 12.2782C156.849 11.7308 157.646 11.0949 158.628 10.3704C159.465 9.74249 160.125 9.21925 160.608 8.80065C161.107 8.36596 161.526 7.90712 161.864 7.42413C162.315 6.78014 162.54 6.06371 162.54 5.27482C162.54 4.66304 162.331 4.1398 161.912 3.7051C161.51 3.25431 160.874 3.02892 160.005 3.02892C159.071 3.02892 158.37 3.25431 157.904 3.7051C157.453 4.1398 157.227 4.77573 157.227 5.61292V6.60305H154.354C154.289 6.32935 154.257 6.00736 154.257 5.63707C154.257 3.9627 154.812 2.70692 155.923 1.86974C157.034 1.03256 158.443 0.613964 160.149 0.613964C161.47 0.613964 162.524 0.863509 163.313 1.3626C164.118 1.86169 164.682 2.48153 165.004 3.22211C165.326 3.9466 165.486 4.69523 165.486 5.46802C165.486 6.4823 165.237 7.40803 164.738 8.24522C164.255 9.0663 163.675 9.76664 162.999 10.3462C162.323 10.9258 161.454 11.602 160.391 12.3748C159.972 12.6646 159.562 12.9624 159.159 13.2683C158.757 13.5742 158.435 13.8479 158.193 14.0894C157.92 14.3631 157.726 14.6126 157.614 14.838H165.583V17.4703H154.088V16.6493Z" fill="#304156"/>
</svg>
