<svg width="146" height="18" viewBox="0 0 146 18" fill="none" xmlns="http://www.w3.org/2000/svg">
<path d="M0.474627 17V0.899999H3.80963V17H0.474627ZM6.35645 17V5.017H9.50745V5.96C9.96745 5.57667 10.4735 5.28533 11.0255 5.086C11.5928 4.88667 12.2061 4.787 12.8655 4.787C14.2455 4.787 15.3801 5.23167 16.2695 6.121C17.1588 7.01033 17.6035 8.15267 17.6035 9.548V17H14.4525V10.008C14.4525 9.25667 14.2225 8.651 13.7625 8.191C13.3178 7.731 12.7198 7.501 11.9685 7.501C11.4471 7.501 10.9718 7.60833 10.5425 7.823C10.1285 8.02233 9.78345 8.31367 9.50745 8.697V17H6.35645ZM23.0486 17L17.8966 5.017H21.3236L24.6126 12.998L27.8786 5.017H31.2366L26.0846 17H23.0486ZM42.5944 15.505C41.8584 16.103 41.0994 16.54 40.3174 16.816C39.5508 17.092 38.6921 17.23 37.7414 17.23C36.8368 17.23 35.9858 17.069 35.1884 16.747C34.4064 16.425 33.7241 15.988 33.1414 15.436C32.5741 14.884 32.1218 14.2323 31.7844 13.481C31.4624 12.7143 31.3014 11.894 31.3014 11.02C31.3014 10.1613 31.4548 9.35633 31.7614 8.605C32.0834 7.83833 32.5204 7.179 33.0724 6.627C33.6244 6.05967 34.2761 5.615 35.0274 5.293C35.7941 4.971 36.6068 4.81 37.4654 4.81C38.3088 4.81 39.0908 4.97867 39.8114 5.316C40.5474 5.638 41.1761 6.08267 41.6974 6.65C42.2341 7.21733 42.6481 7.89967 42.9394 8.697C43.2461 9.479 43.3994 10.33 43.3994 11.25V12.078H34.4754C34.6901 12.8293 35.1041 13.435 35.7174 13.895C36.3308 14.355 37.0514 14.585 37.8794 14.585C38.4008 14.585 38.8914 14.5007 39.3514 14.332C39.8114 14.1633 40.2024 13.9257 40.5244 13.619L42.5944 15.505ZM37.3964 7.409C36.6758 7.409 36.0548 7.63133 35.5334 8.076C35.0121 8.50533 34.6518 9.088 34.4524 9.824H40.3174C40.1181 9.11867 39.7501 8.54367 39.2134 8.099C38.6921 7.639 38.0864 7.409 37.3964 7.409ZM44.2525 15.574L45.8165 13.481C46.5219 13.941 47.1889 14.286 47.8175 14.516C48.4462 14.7307 49.0749 14.838 49.7035 14.838C50.4089 14.838 50.9685 14.723 51.3825 14.493C51.8119 14.263 52.0265 13.9563 52.0265 13.573C52.0265 13.2663 51.9039 13.021 51.6585 12.837C51.4285 12.653 51.0529 12.5227 50.5315 12.446L48.2315 12.101C47.0509 11.917 46.1462 11.5337 45.5175 10.951C44.9042 10.3683 44.5975 9.594 44.5975 8.628C44.5975 7.478 45.0499 6.558 45.9545 5.868C46.8592 5.178 48.0705 4.833 49.5885 4.833C50.4625 4.833 51.3135 4.96333 52.1415 5.224C52.9695 5.46933 53.7592 5.83733 54.5105 6.328L52.9925 8.352C52.3332 7.96867 51.7045 7.685 51.1065 7.501C50.5085 7.30167 49.9029 7.202 49.2895 7.202C48.7222 7.202 48.2622 7.30933 47.9095 7.524C47.5722 7.73867 47.4035 8.02233 47.4035 8.375C47.4035 8.697 47.5262 8.95 47.7715 9.134C48.0322 9.30267 48.4539 9.42533 49.0365 9.502L51.3365 9.847C52.5019 10.0157 53.3989 10.399 54.0275 10.997C54.6715 11.595 54.9935 12.354 54.9935 13.274C54.9935 13.8413 54.8555 14.3703 54.5795 14.861C54.3189 15.3363 53.9585 15.7503 53.4985 16.103C53.0385 16.4557 52.4865 16.7317 51.8425 16.931C51.1985 17.1303 50.5009 17.23 49.7495 17.23C48.6609 17.23 47.6412 17.092 46.6905 16.816C45.7399 16.5247 44.9272 16.1107 44.2525 15.574ZM57.793 13.619V7.662H55.332V5.017H57.793V1.958L60.944 1.245V5.017H64.348V7.662H60.944V12.975C60.944 13.5423 61.0667 13.941 61.312 14.171C61.5573 14.401 61.9867 14.516 62.6 14.516C62.8913 14.516 63.1673 14.5007 63.428 14.47C63.6887 14.424 63.9723 14.3473 64.279 14.24V16.816C63.9417 16.9233 63.5353 17.0077 63.06 17.069C62.5847 17.1457 62.1783 17.184 61.841 17.184C60.507 17.184 59.495 16.885 58.805 16.287C58.1303 15.6737 57.793 14.7843 57.793 13.619ZM74.5853 15.85L69.0193 5.155V17H65.9373V0.899999H70.2153L74.6313 9.548L79.0473 0.899999H83.3253V17H80.1743V5.178L74.5853 15.85ZM89.4051 17.207C88.1171 17.207 87.0668 16.8697 86.2541 16.195C85.4414 15.505 85.0351 14.6157 85.0351 13.527C85.0351 12.3923 85.4721 11.503 86.3461 10.859C87.2201 10.215 88.4238 9.893 89.9571 9.893C90.4478 9.893 90.9384 9.93133 91.4291 10.008C91.9198 10.0847 92.4028 10.1997 92.8781 10.353V9.502C92.8781 8.812 92.6634 8.29067 92.2341 7.938C91.8048 7.58533 91.1761 7.409 90.3481 7.409C89.8421 7.409 89.2901 7.49333 88.6921 7.662C88.1094 7.81533 87.4424 8.06067 86.6911 8.398L85.5411 6.075C86.4764 5.64567 87.3811 5.32367 88.2551 5.109C89.1444 4.89433 90.0184 4.787 90.8771 4.787C92.4871 4.787 93.7368 5.178 94.6261 5.96C95.5308 6.72667 95.9831 7.81533 95.9831 9.226V17H92.8781V16.172C92.3721 16.5247 91.8354 16.7853 91.2681 16.954C90.7161 17.1227 90.0951 17.207 89.4051 17.207ZM88.0481 13.458C88.0481 13.918 88.2474 14.286 88.6461 14.562C89.0448 14.8227 89.5738 14.953 90.2331 14.953C90.7544 14.953 91.2298 14.8917 91.6591 14.769C92.1038 14.631 92.5101 14.4393 92.8781 14.194V12.4C92.4948 12.2467 92.0884 12.1393 91.6591 12.078C91.2451 12.0013 90.8081 11.963 90.3481 11.963C89.6274 11.963 89.0601 12.101 88.6461 12.377C88.2474 12.6377 88.0481 12.998 88.0481 13.458ZM101.985 17.207C100.697 17.207 99.6468 16.8697 98.8341 16.195C98.0215 15.505 97.6151 14.6157 97.6151 13.527C97.6151 12.3923 98.0521 11.503 98.9261 10.859C99.8001 10.215 101.004 9.893 102.537 9.893C103.028 9.893 103.518 9.93133 104.009 10.008C104.5 10.0847 104.983 10.1997 105.458 10.353V9.502C105.458 8.812 105.243 8.29067 104.814 7.938C104.385 7.58533 103.756 7.409 102.928 7.409C102.422 7.409 101.87 7.49333 101.272 7.662C100.689 7.81533 100.022 8.06067 99.2711 8.398L98.1211 6.075C99.0565 5.64567 99.9611 5.32367 100.835 5.109C101.724 4.89433 102.598 4.787 103.457 4.787C105.067 4.787 106.317 5.178 107.206 5.96C108.111 6.72667 108.563 7.81533 108.563 9.226V17H105.458V16.172C104.952 16.5247 104.415 16.7853 103.848 16.954C103.296 17.1227 102.675 17.207 101.985 17.207ZM100.628 13.458C100.628 13.918 100.827 14.286 101.226 14.562C101.625 14.8227 102.154 14.953 102.813 14.953C103.334 14.953 103.81 14.8917 104.239 14.769C104.684 14.631 105.09 14.4393 105.458 14.194V12.4C105.075 12.2467 104.668 12.1393 104.239 12.078C103.825 12.0013 103.388 11.963 102.928 11.963C102.207 11.963 101.64 12.101 101.226 12.377C100.827 12.6377 100.628 12.998 100.628 13.458ZM110.77 17V5.017H113.921V5.96C114.381 5.57667 114.887 5.28533 115.439 5.086C116.007 4.88667 116.62 4.787 117.279 4.787C118.659 4.787 119.794 5.23167 120.683 6.121C121.573 7.01033 122.017 8.15267 122.017 9.548V17H118.866V10.008C118.866 9.25667 118.636 8.651 118.176 8.191C117.732 7.731 117.134 7.501 116.382 7.501C115.861 7.501 115.386 7.60833 114.956 7.823C114.542 8.02233 114.197 8.31367 113.921 8.697V17H110.77ZM123.214 15.574L124.778 13.481C125.484 13.941 126.151 14.286 126.779 14.516C127.408 14.7307 128.037 14.838 128.665 14.838C129.371 14.838 129.93 14.723 130.344 14.493C130.774 14.263 130.988 13.9563 130.988 13.573C130.988 13.2663 130.866 13.021 130.62 12.837C130.39 12.653 130.015 12.5227 129.493 12.446L127.193 12.101C126.013 11.917 125.108 11.5337 124.479 10.951C123.866 10.3683 123.559 9.594 123.559 8.628C123.559 7.478 124.012 6.558 124.916 5.868C125.821 5.178 127.032 4.833 128.55 4.833C129.424 4.833 130.275 4.96333 131.103 5.224C131.931 5.46933 132.721 5.83733 133.472 6.328L131.954 8.352C131.295 7.96867 130.666 7.685 130.068 7.501C129.47 7.30167 128.865 7.202 128.251 7.202C127.684 7.202 127.224 7.30933 126.871 7.524C126.534 7.73867 126.365 8.02233 126.365 8.375C126.365 8.697 126.488 8.95 126.733 9.134C126.994 9.30267 127.416 9.42533 127.998 9.502L130.298 9.847C131.464 10.0157 132.361 10.399 132.989 10.997C133.633 11.595 133.955 12.354 133.955 13.274C133.955 13.8413 133.817 14.3703 133.541 14.861C133.281 15.3363 132.92 15.7503 132.46 16.103C132 16.4557 131.448 16.7317 130.804 16.931C130.16 17.1303 129.463 17.23 128.711 17.23C127.623 17.23 126.603 17.092 125.652 16.816C124.702 16.5247 123.889 16.1107 123.214 15.574ZM139.254 17.207C137.966 17.207 136.915 16.8697 136.103 16.195C135.29 15.505 134.884 14.6157 134.884 13.527C134.884 12.3923 135.321 11.503 136.195 10.859C137.069 10.215 138.272 9.893 139.806 9.893C140.296 9.893 140.787 9.93133 141.278 10.008C141.768 10.0847 142.251 10.1997 142.727 10.353V9.502C142.727 8.812 142.512 8.29067 142.083 7.938C141.653 7.58533 141.025 7.409 140.197 7.409C139.691 7.409 139.139 7.49333 138.541 7.662C137.958 7.81533 137.291 8.06067 136.54 8.398L135.39 6.075C136.325 5.64567 137.23 5.32367 138.104 5.109C138.993 4.89433 139.867 4.787 140.726 4.787C142.336 4.787 143.585 5.178 144.475 5.96C145.379 6.72667 145.832 7.81533 145.832 9.226V17H142.727V16.172C142.221 16.5247 141.684 16.7853 141.117 16.954C140.565 17.1227 139.944 17.207 139.254 17.207ZM137.897 13.458C137.897 13.918 138.096 14.286 138.495 14.562C138.893 14.8227 139.422 14.953 140.082 14.953C140.603 14.953 141.078 14.8917 141.508 14.769C141.952 14.631 142.359 14.4393 142.727 14.194V12.4C142.343 12.2467 141.937 12.1393 141.508 12.078C141.094 12.0013 140.657 11.963 140.197 11.963C139.476 11.963 138.909 12.101 138.495 12.377C138.096 12.6377 137.897 12.998 137.897 13.458Z" fill="white"/>
</svg>
