<svg width="430" height="73" viewBox="0 0 430 73" fill="none" xmlns="http://www.w3.org/2000/svg">
<path d="M2.23694 59.9287L27.1465 65.8892C27.4394 65.9593 27.7443 65.9628 28.0387 65.8993L55.3777 60.0085C55.6226 59.9557 55.8751 59.9492 56.1224 59.9891L93.1693 65.97C93.2753 65.9871 93.3826 65.9957 93.49 65.9957H116.774H144.074C144.2 65.9957 144.326 66.0076 144.45 66.0312L172.234 71.3187C172.468 71.3634 172.709 71.3659 172.945 71.3262L203.592 66.1566C204.195 66.0549 204.719 65.6848 205.016 65.1506L234.022 13.0215C234.823 11.5816 236.92 11.6621 237.609 13.1591L258.578 58.757C258.907 59.4711 259.621 59.9287 260.407 59.9287H285.721C286.008 59.9287 286.291 59.8673 286.553 59.7485L319.45 44.8081C319.615 44.7331 319.789 44.6807 319.969 44.6525L346.927 40.4083L373.078 35.3523C373.203 35.3282 373.325 35.2924 373.443 35.2453L402.448 23.6577C402.654 23.5754 402.845 23.4597 403.013 23.3153L427.872 1.95636" stroke="#5CCB75" stroke-width="3.01869" stroke-linecap="round"/>
</svg>
