<svg width="33" height="11" viewBox="0 0 33 11" fill="none" xmlns="http://www.w3.org/2000/svg">
<path d="M3.20248 7.15098H0.724093V5.98316H3.20248V3.24525H4.35734V5.98316H6.8487V7.15098H4.35734V9.87592H3.20248V7.15098ZM11.2214 10.0316C10.2006 10.0316 9.4134 9.79374 8.85976 9.31795C8.30612 8.83352 8.0293 8.1804 8.0293 7.3586V7.21586H9.37879V7.39752C9.37879 7.89061 9.53018 8.27123 9.83295 8.5394C10.1357 8.79892 10.5726 8.92868 11.1435 8.92868C11.6971 8.92868 12.134 8.80324 12.4541 8.55238C12.7741 8.29286 12.9342 7.90791 12.9342 7.39752C12.9342 6.40271 12.3113 5.9053 11.0657 5.9053H10.2092V4.80235H11.1046C11.5717 4.80235 11.961 4.67692 12.2724 4.42605C12.5925 4.16653 12.7525 3.80321 12.7525 3.33608C12.7525 2.8603 12.6055 2.50562 12.3113 2.27206C12.0172 2.03849 11.6409 1.92171 11.1824 1.92171C10.6894 1.92171 10.2958 2.04714 10.0016 2.29801C9.71617 2.54022 9.57343 2.89922 9.57343 3.37501V3.53072H8.21097V3.25822C8.21097 2.77379 8.3364 2.34991 8.58727 1.98659C8.83813 1.61461 9.18416 1.32914 9.62533 1.13018C10.0752 0.922567 10.5855 0.81876 11.1565 0.81876C12.0648 0.81876 12.7871 1.0307 13.3235 1.45458C13.8598 1.87846 14.128 2.47967 14.128 3.25822C14.128 3.75131 13.9982 4.15788 13.7387 4.47795C13.4878 4.78938 13.1331 5.04889 12.6747 5.25651V5.30841C13.1764 5.45547 13.5743 5.71499 13.8684 6.08696C14.1712 6.45894 14.3226 6.92607 14.3226 7.48836C14.3226 8.00739 14.1885 8.46155 13.9203 8.85082C13.6608 9.23145 13.2975 9.52557 12.8304 9.73318C12.3632 9.93214 11.8269 10.0316 11.2214 10.0316ZM15.9662 8.77297H18.198V2.76514H15.9532V1.94766C16.3684 1.90441 16.8615 1.79195 17.4324 1.61029C18.012 1.42863 18.5181 1.21669 18.9506 0.97447H19.5345V8.77297H21.5977V9.87592H15.9662V8.77297ZM24.7595 5.50305C24.0847 5.50305 23.5743 5.33004 23.2283 4.98401C22.8909 4.62934 22.7222 4.0238 22.7222 3.16739C22.7222 2.30233 22.8909 1.69679 23.2283 1.35077C23.5743 0.996097 24.0847 0.81876 24.7595 0.81876C25.4342 0.81876 25.9403 0.996097 26.2776 1.35077C26.615 1.69679 26.7837 2.30233 26.7837 3.16739C26.7837 4.03245 26.615 4.63799 26.2776 4.98401C25.9403 5.33004 25.4342 5.50305 24.7595 5.50305ZM30.4429 0.97447H31.5848L25.0968 9.87592H23.9809L30.4429 0.97447ZM24.7595 4.64664C25.1055 4.64664 25.3434 4.52986 25.4731 4.29629C25.6115 4.06273 25.6807 3.70805 25.6807 3.23227V3.10251C25.6807 2.62673 25.6115 2.27206 25.4731 2.03849C25.3434 1.79628 25.1055 1.67517 24.7595 1.67517C24.4048 1.67517 24.1626 1.79195 24.0328 2.02552C23.903 2.25908 23.8382 2.61808 23.8382 3.10251V3.23227C23.8382 3.70805 23.903 4.06273 24.0328 4.29629C24.1626 4.52986 24.4048 4.64664 24.7595 4.64664ZM30.7932 10.0316C30.1185 10.0316 29.6081 9.85861 29.2621 9.51259C28.9247 9.15792 28.756 8.55238 28.756 7.69597C28.756 6.83091 28.9247 6.22537 29.2621 5.87935C29.6081 5.52467 30.1185 5.34734 30.7932 5.34734C31.4593 5.34734 31.9611 5.52467 32.2984 5.87935C32.6445 6.23402 32.8175 6.83956 32.8175 7.69597C32.8175 8.55238 32.6488 9.15792 32.3114 9.51259C31.974 9.85861 31.468 10.0316 30.7932 10.0316ZM30.7932 9.17522C31.1393 9.17522 31.3771 9.05411 31.5069 8.81189C31.6453 8.56968 31.7145 8.20635 31.7145 7.72192V7.63109C31.7145 7.15531 31.6453 6.80063 31.5069 6.56707C31.3771 6.32485 31.1393 6.20374 30.7932 6.20374C30.4386 6.20374 30.192 6.32485 30.0536 6.56707C29.9238 6.80063 29.859 7.15531 29.859 7.63109V7.72192C29.859 8.20635 29.9238 8.56968 30.0536 8.81189C30.192 9.05411 30.4386 9.17522 30.7932 9.17522Z" fill="#828D99"/>
</svg>
